<svg xmlns="http://www.w3.org/2000/svg" viewBox="0 0 640 420">
  <rect width="640" height="420" fill="#bbf7d0"/>
  <rect y="250" width="640" height="170" fill="#86efac"/>
  <path d="M0 250c80-40 160-40 240 0s160 40 240 0 160-40 160-40v210H0z" fill="#4ade80"/>
  <path d="M90 250c25-18 44-40 56-66M150 250c25-18 44-40 56-66M210 250c25-18 44-40 56-66M270 250c25-18 44-40 56-66M330 250c25-18 44-40 56-66M390 250c25-18 44-40 56-66M450 250c25-18 44-40 56-66M510 250c25-18 44-40 56-66" stroke="#14532d" stroke-width="8" stroke-linecap="round"/>
  <path d="M90 250c20 12 42 24 66 30M150 250c20 12 42 24 66 30M210 250c20 12 42 24 66 30M270 250c20 12 42 24 66 30M330 250c20 12 42 24 66 30M390 250c20 12 42 24 66 30M450 250c20 12 42 24 66 30M510 250c20 12 42 24 66 30" stroke="#166534" stroke-width="7" stroke-linecap="round"/>
  <text x="24" y="392" font-family="Arial" font-size="28" fill="#0f172a">Demo evidence: lodged crop after storm</text>
</svg>
